<mxfile host="app.diagrams.net" modified="2023-08-28T03:04:01.473Z" agent="Mozilla/5.0 (Macintosh; Intel Mac OS X 10_15_7) AppleWebKit/537.36 (KHTML, like Gecko) Chrome/116.0.0.0 Safari/537.36" version="21.6.5" etag="6P2NhIMcn3C_6n1XqvCu" type="github">
  <diagram name="第 1 页" id="FrOkaC4wOO9yFCmnOpqC">
    <mxGraphModel>
      <root>
        <mxCell id="0" />
        <mxCell id="1" parent="0" />
      </root>
    </mxGraphModel>
  </diagram>
</mxfile>
